<svg width="24" height="24" viewBox="0 0 24 24" fill="none" xmlns="http://www.w3.org/2000/svg">
<g clip-path="url(#clip0_1_2)">
<path d="M7.18353 8.91724C11.9794 8.85517 14.4906 11.1517 14.717 15.8069C14.7581 16.7586 15.1286 17.669 15.2521 18.6207C15.5403 20.6276 14.7993 22.0552 13.2144 22.7793C11.5472 23.5241 10.1681 22.8414 8.97427 21.7448C8.45969 21.269 8.21269 20.5241 7.7187 20.0069C6.54545 18.6621 5.35163 17.3793 4.07547 16.1586C3.31389 15.4138 2.36707 14.8552 1.56432 14.131C0.473413 13.1172 0.123498 11.731 0.967409 10.5724C1.58491 9.72414 2.73756 8.97931 3.76672 8.77241C5.00171 8.50345 6.38079 8.85517 7.18353 8.91724Z" fill="white"/>
<path d="M15.4786 0.848277C16.9606 0.806898 17.8045 1.69655 17.331 3.10345C16.6312 5.23448 15.3345 6.88966 13.0703 7.55173C11.4237 8.02759 10.1475 6.91035 10.4357 5.33793C10.8268 3.28966 13.5026 0.910346 15.4786 0.848277Z" fill="white"/>
<path d="M17.3928 11.4621C16.0755 11.4828 15.1286 10.3241 15.4786 9.08276C16.0343 7.11724 18.422 4.9862 20.3774 4.73793C21.777 4.57241 22.4768 5.15172 22.4151 6.47586C22.3328 8.56551 19.41 11.4414 17.3928 11.4621Z" fill="white"/>
<path d="M6.40138 7.36551C4.8988 7.42758 4.05489 6.55862 4.42539 5.15172C4.8988 3.33103 5.98971 1.90345 7.80103 1.22069C9.20069 0.703446 10.1269 1.3862 10.2299 2.87586C10.3533 4.88276 8.31561 7.26207 6.40138 7.36551Z" fill="white"/>
<path d="M23.0532 12.9724C23.0738 15.3931 19.6364 17.8345 17.7633 17.1517C16.6312 16.7379 16.446 15.8483 16.7136 14.8138C17.1458 13.1172 19.8216 11.3172 21.4889 11.7517C22.1475 11.9379 22.6827 12.6828 23.0532 12.9724Z" fill="white"/>
</g>
<defs>
<clipPath id="clip0_1_2">
<rect width="24" height="24" fill="white"/>
</clipPath>
</defs>
</svg>
